<?xml version="1.0" encoding="UTF-8" standalone="no"?> <svg class="svg-icon" style="width: 1em; height: 1em;vertical-align: middle;fill: currentColor;overflow: hidden;" viewBox="0 0 1024 1024" version="1.1" xmlns="http://www.w3.org/2000/svg"><path d="M734.876738 302.650678c0 68.712047-38.727065 129.312507-97.678533 165.23871a227.269913 227.269913 0 0 1-25.462379 13.410186 243.068713 243.068713 0 0 1-99.715523 21.061024c-123.104536 0-222.892809-89.409323-222.892809-199.70992S388.915767 102.940758 512.020303 102.940758a247.579191 247.579191 0 0 1 54.719863 6.062471c66.772056 15.083428 121.552544 57.181227 149.027663 112.567962a181.461882 181.461882 0 0 1 19.108909 81.079487z" fill="#81CD68" /><path d="M715.731454 221.583316l-78.557499 246.306072-6.220096 19.496907-19.278657-6.062471-218.455081-68.833296L566.703792 109.015354c66.83268 15.083428 121.552544 57.181227 149.027662 112.567962z" fill="#74B758" /><path d="M511.983928 102.940758c123.104536 0 222.892809 89.421447 222.89281 199.70992s-99.788273 199.70992-222.89281 199.70992-222.892809-89.409323-222.892809-199.70992S388.879392 102.940758 511.983928 102.940758m0-36.374826c-68.505922 0-133.107614 24.06801-181.87413 67.778426a235.429999 235.429999 0 0 0-56.380981 75.041266 217.606335 217.606335 0 0 0 0 186.530108 235.296625 235.296625 0 0 0 56.380981 75.041266c48.778642 43.710416 113.380333 67.778426 181.87413 67.778426s133.107614-24.06801 181.874131-67.778426a235.502749 235.502749 0 0 0 56.393105-75.041266 217.715459 217.715459 0 0 0 0-186.530108 235.636123 235.636123 0 0 0-56.38098-75.004891c-48.778642-43.710416-113.380333-67.778426-181.874131-67.778426z" fill="#6D2F2E" /><path d="M894.222726 645.119666c0 115.271824-63.571071 217.254711-161.007105 279.322289-62.431327 39.76981-138.782087 63.158823-221.231693 63.158824-211.107366 0-382.238798-153.332017-382.238797-342.481113 0-128.936634 79.51537-430.071694 197.018183-608.74484l43.383042 76.035512 141.861822 248.561311L582.017593 239.491855l116.181195-201.625661c14.54993 22.297768 28.554238 46.462778 41.867425 71.937281 93.531803 178.976269 154.156513 422.772479 154.156513 535.316191z" fill="#DABEAA" /><path d="M894.222726 645.119666c0 115.271824-63.571071 217.254711-161.007105 279.322289a423.645475 423.645475 0 0 1-109.779226 14.331682c-211.107366 0-382.238798-153.283517-382.238797-342.432613 0-102.092012 49.857762-312.156633 128.948758-483.894312l141.861822 248.561312L582.017593 239.52823l116.993566-193.113952 41.091429 63.389197c93.495428 178.976269 154.120138 422.772479 154.120138 535.316191z" fill="#F5E6CD" /><path d="M326.775439 36.374826l185.208489 324.633198L698.198788 37.866194c116.945066 178.85502 196.023938 478.680587 196.023938 607.253472 0 189.149096-171.131432 342.481113-382.238798 342.481113S129.757256 834.268762 129.757256 645.119666C129.757256 516.195157 209.272625 215.047972 326.763314 36.374826m0-36.374826a36.374826 36.374826 0 0 0-30.385105 16.392922C241.294597 100.152021 189.096722 218.224707 149.399662 348.822457 114.334329 464.239781 93.394554 575.001126 93.394554 645.119666a346.13072 346.13072 0 0 0 33.501215 148.857913c21.339898 45.201784 51.797752 85.711215 90.536942 120.424924a422.275356 422.275356 0 0 0 132.87724 80.315616 460.966046 460.966046 0 0 0 323.347954 0 422.141982 422.141982 0 0 0 132.87724-80.339865c38.799815-34.713709 69.197044-75.174641 90.536942-120.424925a346.142845 346.142845 0 0 0 33.525465-148.833663c0-69.876041-20.83065-180.273638-55.774733-295.327213-39.418187-130.124878-91.349313-247.96719-146.190427-331.811164a36.374826 36.374826 0 0 0-30.433604-16.465671h-1.03062a36.374826 36.374826 0 0 0-30.494229 18.187413L512.141552 287.882499 358.300288 18.345037A36.374826 36.374826 0 0 0 327.854558 0.012125z" fill="#6D2F2E" /><path d="M397.439601 439.589773a9.093707 9.093707 0 0 1-9.093707-9.093706v-32.009847a9.093707 9.093707 0 1 1 18.187413 0v32.009847a9.093707 9.093707 0 0 1-9.093706 9.093706zM626.528256 439.589773a9.093707 9.093707 0 0 1-9.093707-9.093706v-32.009847a9.093707 9.093707 0 1 1 18.187413 0v32.009847a9.093707 9.093707 0 0 1-9.093706 9.093706zM511.983928 578.29911c-24.819756 0-45.007785-19.496907-45.007785-43.480042a9.093707 9.093707 0 0 1 18.187413 0c0 13.943683 12.027942 25.292629 26.820372 25.292629s26.820372-11.348946 26.820372-25.292629a9.093707 9.093707 0 0 1 18.187413 0c0 23.934636-20.188028 43.480042-45.007785 43.480042zM415.687639 712.570718a35.635205 35.635205 0 0 1-24.650008-9.772703l-54.489489-52.137251a9.093707 9.093707 0 0 1 12.573565-13.143437l54.562239 52.137251a17.908539 17.908539 0 0 0 24.249884 0 15.144053 15.144053 0 0 0 0-22.07952l-54.501614-52.13725a9.098557 9.098557 0 0 1 12.585689-13.143437l54.48949 52.13725a33.307216 33.307216 0 0 1 0 48.342144 35.610955 35.610955 0 0 1-24.819756 9.796953zM608.292343 712.570718a35.610955 35.610955 0 0 1-24.686382-9.772703 33.307216 33.307216 0 0 1 0-48.342144l54.489489-52.137251a9.098557 9.098557 0 1 1 12.58569 13.143438l-54.489489 52.13725a15.119803 15.119803 0 0 0 0 22.07952 17.896414 17.896414 0 0 0 24.189259 0l54.562239-52.137251a9.093707 9.093707 0 0 1 12.573565 13.143437l-54.48949 52.137251a35.610955 35.610955 0 0 1-24.734881 9.748453z" fill="#6D2F2E" /><path d="M332.83791 498.128994a36.374826 24.249884 0 1 0 72.749652 0 36.374826 24.249884 0 1 0-72.749652 0Z" fill="#E65257" /><path d="M614.136565 498.128994a36.374826 24.249884 0 1 0 72.749652 0 36.374826 24.249884 0 1 0-72.749652 0Z" fill="#E65257" /><path d="M797.453563 419.910993a9.093707 9.093707 0 0 1-8.717833-6.777843l-54.562239-207.336509a9.096132 9.096132 0 0 1 17.593291-4.631728l54.562239 207.336509a9.105831 9.105831 0 0 1-8.802708 11.409571zM817.944715 487.107421a9.093707 9.093707 0 0 1-8.596583-6.13522l-12.124942-35.162332a9.093707 9.093707 0 1 1 17.193167-5.880597l12.124942 35.162332a9.105831 9.105831 0 0 1-5.625973 11.567194 9.42108 9.42108 0 0 1-2.970611 0.448623z" fill="#FFFFFF" /></svg>